<mxfile host="app.diagrams.net" modified="2023-02-08T07:36:33.622Z" agent="5.0 (X11; Linux x86_64) AppleWebKit/537.36 (KHTML, like Gecko) Chrome/109.0.0.0 Safari/537.36" etag="wTeAEAy3qrDDGIogX1Dg" version="20.8.16" type="github">
  <diagram name="Page-1" id="lhpG-6s35WcC3HquEmdp">
    <mxGraphModel dx="988" dy="562" grid="1" gridSize="10" guides="1" tooltips="1" connect="1" arrows="1" fold="1" page="1" pageScale="1" pageWidth="850" pageHeight="1100" math="0" shadow="0">
      <root>
        <mxCell id="0" />
        <mxCell id="1" parent="0" />
        <mxCell id="NIr34-rcBvzNiURg-hvs-13" value="&lt;font style=&quot;font-size: 18px;&quot;&gt;Linux4Tegra&lt;/font&gt;" style="verticalAlign=top;align=left;spacingTop=8;spacingLeft=2;spacingRight=12;shape=cube;size=10;direction=south;fontStyle=4;html=1;sketch=1;hachureGap=4;jiggle=2;curveFitting=1;fontFamily=Architects Daughter;fontSource=https%3A%2F%2Ffonts.googleapis.com%2Fcss%3Ffamily%3DArchitects%2BDaughter;fontSize=14;" vertex="1" parent="1">
          <mxGeometry x="120" y="240" width="610" height="210" as="geometry" />
        </mxCell>
        <mxCell id="NIr34-rcBvzNiURg-hvs-14" value="Network Interfacing" style="shape=module;align=left;spacingLeft=20;align=center;verticalAlign=top;sketch=1;hachureGap=4;jiggle=2;curveFitting=1;fontFamily=Architects Daughter;fontSource=https%3A%2F%2Ffonts.googleapis.com%2Fcss%3Ffamily%3DArchitects%2BDaughter;fontSize=14;" vertex="1" parent="1">
          <mxGeometry x="130" y="290" width="180" height="30" as="geometry" />
        </mxCell>
        <mxCell id="NIr34-rcBvzNiURg-hvs-15" value="Traffic Counter" style="shape=module;align=left;spacingLeft=20;align=center;verticalAlign=top;sketch=1;hachureGap=4;jiggle=2;curveFitting=1;fontFamily=Architects Daughter;fontSource=https%3A%2F%2Ffonts.googleapis.com%2Fcss%3Ffamily%3DArchitects%2BDaughter;fontSize=14;" vertex="1" parent="1">
          <mxGeometry x="342.5" y="290" width="325" height="140" as="geometry" />
        </mxCell>
        <mxCell id="NIr34-rcBvzNiURg-hvs-19" style="edgeStyle=orthogonalEdgeStyle;rounded=0;sketch=1;hachureGap=4;jiggle=2;curveFitting=1;orthogonalLoop=1;jettySize=auto;html=1;fontFamily=Architects Daughter;fontSource=https%3A%2F%2Ffonts.googleapis.com%2Fcss%3Ffamily%3DArchitects%2BDaughter;fontSize=14;" edge="1" parent="1" source="NIr34-rcBvzNiURg-hvs-16" target="NIr34-rcBvzNiURg-hvs-17">
          <mxGeometry relative="1" as="geometry" />
        </mxCell>
        <mxCell id="NIr34-rcBvzNiURg-hvs-20" style="edgeStyle=orthogonalEdgeStyle;rounded=0;sketch=1;hachureGap=4;jiggle=2;curveFitting=1;orthogonalLoop=1;jettySize=auto;html=1;entryX=0;entryY=0;entryDx=0;entryDy=35;entryPerimeter=0;fontFamily=Architects Daughter;fontSource=https%3A%2F%2Ffonts.googleapis.com%2Fcss%3Ffamily%3DArchitects%2BDaughter;fontSize=14;" edge="1" parent="1" source="NIr34-rcBvzNiURg-hvs-16" target="NIr34-rcBvzNiURg-hvs-18">
          <mxGeometry relative="1" as="geometry" />
        </mxCell>
        <mxCell id="NIr34-rcBvzNiURg-hvs-16" value="YOLOv8" style="shape=module;align=left;spacingLeft=20;align=center;verticalAlign=top;sketch=1;hachureGap=4;jiggle=2;curveFitting=1;fontFamily=Architects Daughter;fontSource=https%3A%2F%2Ffonts.googleapis.com%2Fcss%3Ffamily%3DArchitects%2BDaughter;fontSize=14;" vertex="1" parent="1">
          <mxGeometry x="375" y="320" width="90" height="30" as="geometry" />
        </mxCell>
        <mxCell id="NIr34-rcBvzNiURg-hvs-17" value="StrongSORT" style="shape=module;align=left;spacingLeft=20;align=center;verticalAlign=top;sketch=1;hachureGap=4;jiggle=2;curveFitting=1;fontFamily=Architects Daughter;fontSource=https%3A%2F%2Ffonts.googleapis.com%2Fcss%3Ffamily%3DArchitects%2BDaughter;fontSize=14;" vertex="1" parent="1">
          <mxGeometry x="515" y="320" width="120" height="30" as="geometry" />
        </mxCell>
        <mxCell id="NIr34-rcBvzNiURg-hvs-18" value="OCSORT" style="shape=module;align=left;spacingLeft=20;align=center;verticalAlign=top;sketch=1;hachureGap=4;jiggle=2;curveFitting=1;fontFamily=Architects Daughter;fontSource=https%3A%2F%2Ffonts.googleapis.com%2Fcss%3Ffamily%3DArchitects%2BDaughter;fontSize=14;" vertex="1" parent="1">
          <mxGeometry x="525" y="370" width="100" height="30" as="geometry" />
        </mxCell>
        <mxCell id="NIr34-rcBvzNiURg-hvs-23" value="" style="endArrow=block;endFill=1;html=1;edgeStyle=orthogonalEdgeStyle;align=left;verticalAlign=top;rounded=0;sketch=1;hachureGap=4;jiggle=2;curveFitting=1;fontFamily=Architects Daughter;fontSource=https%3A%2F%2Ffonts.googleapis.com%2Fcss%3Ffamily%3DArchitects%2BDaughter;fontSize=14;exitX=0.5;exitY=1;exitDx=0;exitDy=0;entryX=0.5;entryY=0;entryDx=0;entryDy=0;" edge="1" parent="1" source="NIr34-rcBvzNiURg-hvs-15" target="NIr34-rcBvzNiURg-hvs-28">
          <mxGeometry x="-1" relative="1" as="geometry">
            <mxPoint x="490" y="570" as="sourcePoint" />
            <mxPoint x="505" y="570" as="targetPoint" />
          </mxGeometry>
        </mxCell>
        <mxCell id="NIr34-rcBvzNiURg-hvs-28" value="Data Store" style="shape=datastore;whiteSpace=wrap;html=1;sketch=1;hachureGap=4;jiggle=2;curveFitting=1;fontFamily=Architects Daughter;fontSource=https%3A%2F%2Ffonts.googleapis.com%2Fcss%3Ffamily%3DArchitects%2BDaughter;fontSize=14;" vertex="1" parent="1">
          <mxGeometry x="455.5" y="615" width="100" height="30" as="geometry" />
        </mxCell>
      </root>
    </mxGraphModel>
  </diagram>
</mxfile>
